<svg xmlns="http://www.w3.org/2000/svg" width="100" height="95">

  <!-- Black microchip -->
  <rect x="0" y="10" width="100" height="75" fill="black" />

  <!-- White edges around microchip -->
  <line x1="0" y1="10" x2="100" y2="10" stroke="silver" stroke-width="2" />
  <line x1="0" y1="85" x2="100" y2="85" stroke="silver" stroke-width="2" />
  <line x1="0" y1="9" x2="0" y2="86" stroke="silver" stroke-width="2" />
  <line x1="100" y1="9" x2="100" y2="86" stroke="silver" stroke-width="2" />



  <!-- Microchip pins -->
  <!-- Top pins -->
  <rect x="5" y="0" width="10" height="10" fill="silver" />
  <rect x="25" y="0" width="10" height="10" fill="silver" />
  <rect x="45" y="0" width="10" height="10" fill="silver" />
  <rect x="65" y="0" width="10" height="10" fill="silver" />
  <rect x="85" y="0" width="10" height="10" fill="silver" />

  <!-- Bottom pins -->
  <rect x="5" y="85" width="10" height="10" fill="silver" />
  <rect x="25" y="85" width="10" height="10" fill="silver" />
  <rect x="45" y="85" width="10" height="10" fill="silver" />
  <rect x="65" y="85" width="10" height="10" fill="silver" />
  <rect x="85" y="85" width="10" height="10" fill="silver" />

  <!-- Silver half-circle edge -->
  <path d="M0 29 A15 15 0 0 1 0 66" fill="silver" />

  <!-- Silver half-circle -->
  <path d="M0 30 A10 10 0 0 1 0 65" fill="#71706E" />

</svg>
